# xmcd
#
# Track frame offsets:
#	150
#	20356
#	37983
#	60698
#	84976
#	102220
#	119638
#	140495
#	160141
#	178349
#	194721
#	213357
#
# Disc length: 3162 seconds
#
# Revision: 1
# Processed by: cddbd v1.5.2PL0 Copyright (c) Steve Scherf et al.
# Submitted via: audiograbber 1.83.01
#
DISCID=a90c580c
DTITLE=Mariette Croteau - Il Y'a Quelque Part
DYEAR=2007
DGENRE=Country
TTITLE0=Simplement(Mariette Croteau-Mariette Croteau)
TTITLE1=Il Y'a Quelque Part(Patricia Caron-Patricia Caron)
TTITLE2=Toi(Mariette Croteau-Mariette Croteau)
TTITLE3=Ton Coeur Est Déjà Pris(Mariette Croteau-Mariette Croteau)
TTITLE4=Ce Soir, Je N'ai Pas Envie D'écrire(Mariette Croteau-Mariette Croteau)
TTITLE5=Maintenant C'est À Mon Tour(Paul Daraîche-Paul Daraîche)
TTITLE6=Je Ferai Ma Valise(Mariette Croteau-Mariette Croteau)
TTITLE7=Être Libre(Mariette Croteau-Pierre Bessette)
TTITLE8=Une Danse Avec Toi(Mariette Croteau-Mariette Croteau)
TTITLE9=Je Suis En Amour Avec Toi(Mariette Croteau-Mariette Croteau)
TTITLE10=Encore Et Maintenant(Claude Robin-Claude Robin)
TTITLE11=Je Dois Fermer Les Yeux(Mariette Croteau-Mariette Croteau)
EXTD=
EXTT0=
EXTT1=
EXTT2=
EXTT3=
EXTT4=
EXTT5=
EXTT6=
EXTT7=
EXTT8=
EXTT9=
EXTT10=
EXTT11=
PLAYORDER=
